# AST/ASF file generated using VICON BodyLanguage
# -----------------------------------------------
:version 1.10
:name VICON
:units
  mass 1.0
  length 0.45
  angle deg
:documentation
   .ast/.asf automatically generated from VICON data using
   VICON BodyBuilder and BodyLanguage model FoxedUp or BRILLIANT.MOD
:root
   order TX TY TZ RX RY RZ
   axis XYZ
   position 0 0 0  
   orientation 0 0 0 
:bonedata
  begin
     id 1 
     name lhipjoint
     direction 0.528046 -0.759594 0.379717 
     length 2.39752 
     axis 0 0 0  XYZ
  end
  begin
     id 2 
     name lfemur
     direction 0.34202 -0.939693 0  
     length 7.31175  
     axis 0 0 20  XYZ
    dof rx ry rz
    limits (-160.0 20.0)
           (-70.0 70.0)
           (-60.0 70.0)
  end
  begin
     id 3 
     name ltibia
     direction 0.34202 -0.939693 0   
     length 7.52482   
     axis 0 0 20   XYZ
    dof rx
    limits (-10.0 170.0)
  end
  begin
     id 4 
     name lfoot
     direction 0.0675379 -0.185559 0.980309   
     length 2.00961   
     axis -90 7.62852e-016 20   XYZ
    dof rx rz
    limits (-45.0 90.0)
           (-70.0 20.0)
  end
  begin
     id 5 
     name ltoes
     direction 1.5352e-011 -4.22286e-011 1   
     length 1.01383   
     axis -90 7.62852e-016 20   XYZ
    dof rx
    limits (-90.0 20.0)
  end
  begin
     id 6 
     name rhipjoint
     direction -0.510274 -0.769251 0.384544   
     length 2.36742  
     axis 0 0 0  XYZ 
  end
  begin
     id 7 
     name rfemur
     direction -0.34202 -0.939693 0   
     length 7.45325   
     axis 0 0 -20   XYZ
    dof rx ry rz
    limits (-160.0 20.0)
           (-70.0 70.0)
           (-70.0 60.0)
  end
  begin
     id 8 
     name rtibia
     direction -0.34202 -0.939693 0   
     length 7.49587   
     axis 0 0 -20   XYZ
    dof rx
    limits (-10.0 170.0)
 end
 begin
     id 9 
     name rfoot
     direction -0.106475 -0.292536 0.950308   
     length 2.20898  
     axis -90 -7.62852e-016 -20   XYZ
    dof rx rz
    limits (-45.0 90.0)
           (-20.0 70.0)
  end
  begin
     id 10 
     name rtoes
     direction -1.53597e-011 -4.22023e-011 1   
     length 1.10065   
     axis -90 -7.62852e-016 -20   XYZ
    dof rx
    limits (-90.0 20.0)
  end
  begin
     id 11 
     name lowerback
     direction 0.0260024 0.998026 -0.0571652   
     length 2.11214   
     axis 0 0 0   XYZ
    dof rx ry rz
    limits (-20.0 45.0)
           (-30.0 30.0)
           (-30.0 30.0)
  end
  begin
     id 12 
     name upperback
     direction 0.0216202 0.999542 -0.0211766   
     length 2.11689   
     axis 0 0 0   XYZ
    dof rx ry rz
    limits (-20.0 45.0)
           (-30.0 30.0)
           (-30.0 30.0)
  end
  begin
     id 13 
     name thorax
     direction 0.00883312 0.999944 0.00589057   
     length 2.11821   
     axis 0 0 0   XYZ
    dof rx ry rz
    limits (-20.0 45.0)
           (-30.0 30.0)
           (-30.0 30.0)
  end
  begin
     id 14 
     name lowerneck
     direction -0.059386 0.994433 0.0870401   
     length 1.81176   
     axis 0 0 0   XYZ
    dof rx ry rz
    limits (-20.0 45.0)
           (-30.0 30.0)
           (-30.0 30.0)
  end
  begin
     id 15 
     name upperneck
     direction 0.0506457 0.97328 -0.223967   
     length 1.82382   
     axis 0 0 0   XYZ
    dof rx ry rz
    limits (-20.0 45.0)
           (-30.0 30.0)
           (-30.0 30.0)
  end
  begin
     id 16
     name head
     direction 0.0205902 0.996147 -0.0852487  
     length 1.84805  
     axis 0 0 0   XYZ
    dof rx ry rz
    limits (-20.0 45.0)
           (-30.0 30.0)
           (-30.0 30.0)
  end
  begin
     id 17 
     name lclavicle
     direction 0.949493 0.303881 -0.0782325  
     length 3.60584  
     axis 0 0 0   XYZ
    dof ry rz
    limits (-20.0 10.0)
           (0.0 20.0)
  end
  begin
     id 18 
     name lhumerus
     direction 1 -4.48965e-011 1.48782e-027   
     length 4.95681   
     axis 180 -30 -90   XYZ
    dof rx ry rz
    limits (-60.0 90.0)
           (-90.0 90.0)
           (-90.0 90.0)
  end
  begin
     id 19
     name lradius
     direction 1 -4.48952e-011 2.06528e-027   
     length 3.40915   
     axis 180 -30 -90   XYZ
    dof rx
    limits (-10.0 170.0)
  end
  begin
     id 20
     name lwrist
     direction 1 -4.48964e-011 1.28021e-027   
     length 1.70457   
     axis -1.61767e-015 90 90   XYZ
    dof ry
    limits (-180.0 0.0)
 end
  begin
     id 21 
     name lhand
     direction 1 -4.49094e-011 2.54887e-027   
     length 0.616403   
     axis -1.63363e-015 90 90   XYZ
    dof rx rz
    limits (-90.0 90.0)
           (-45.0 45.0)
  end
  begin
     id 22 
     name lfingers
     direction 1 -4.49002e-011 5.11407e-027   
     length 0.49696   
     axis -3.26723e-015 90 90   XYZ
    dof rx
    limits (0.0 90.0)
  end
  begin
     id 23
     name lthumb
     direction 0.707107 -6.34998e-011 0.707107   
     length 0.713539   
     axis -90 45 -2.25915e-014   XYZ
    dof rx rz
    limits (-45.0 45.0)
           (-45.0 45.0)
  end
  begin
     id 24 
     name rclavicle
     direction -0.937751 0.334612 -0.0930482   
     length 3.46287  
     axis 0 0 0   XYZ 
    dof ry rz
    limits (-10.0 20.0)
           (-20.0 0.0)
  end
  begin
     id 25 
     name rhumerus
     direction -1 -4.48962e-011 3.59972e-027  
     length 5.352   
     axis 180 30 90   XYZ
    dof rx ry rz
    limits (-90.0 60.0)
           (-90.0 90.0)
           (-90.0 90.0)
  end
  begin
     id 26 
     name rradius
     direction -1 -4.48987e-011 -3.76925e-027   
     length 3.43721   
     axis 180 30 90   XYZ
    dof rx
    limits (-10.0 170.0)
  end
  begin
     id 27 
     name rwrist
     direction -1 -4.48943e-011 1.28112e-027   
     length 1.7186   
     axis -1.61767e-015 -90 -90   XYZ
    dof ry
    limits (-180.0 0.0)
  end
  begin
     id 28
     name rhand
     direction -1 -4.49027e-011 2.55483e-027   
     length 0.72009   
     axis -1.63363e-015 -90 -90   XYZ
    dof rx rz
    limits (-90.0 90.0)
           (-45.0 45.0)
  end
  begin
     id 29
     name rfingers
     direction -1 -4.48827e-011 5.14506e-027   
     length 0.580555   
     axis -3.26723e-015 -90 -90   XYZ
    dof rx
    limits (0.0 90.0)
  end
  begin
     id 30
     name rthumb
     direction -0.707107 -6.34936e-011 0.707107   
     length 0.833564   
     axis -90 -45 2.25915e-014   XYZ
    dof rx rz
    limits (-45.0 45.0)
           (-45.0 45.0)
  end
:hierarchy
  begin
    root lhipjoint rhipjoint lowerback
    lhipjoint lfemur
    lfemur ltibia
    ltibia lfoot
    lfoot ltoes
    rhipjoint rfemur
    rfemur rtibia
    rtibia rfoot
    rfoot rtoes
    lowerback upperback
    upperback thorax
    thorax lowerneck lclavicle rclavicle
    lowerneck upperneck
    upperneck head
    lclavicle lhumerus
    lhumerus lradius
    lradius lwrist
    lwrist lhand lthumb
    lhand lfingers
    rclavicle rhumerus
    rhumerus rradius
    rradius rwrist
    rwrist rhand rthumb
    rhand rfingers
  end

#!OML:ASF H:\Terrain\Patient Classification 1\Terrain2\Thursday\justin.ASF
:FULLY-SPECIFIED
:DEGREES
895
root 19.2233 21.058 2.35346 1.21982 3.92008 0.247897
lowerback 9.42199 -1.66504 -3.28348
upperback 3.23626 -2.43622 2.68584
thorax -1.65554 -1.24036 4.89817
lowerneck -11.0218 -3.57803 -10.1437
upperneck 38.1356 -5.72558 7.95773
head 15.9225 -2.84826 4.33583
rclavicle 1.36167e-014 -5.56597e-015
rhumerus -33.8229 -13.3099 -77.4431
rradius 29.7316
rwrist -11.5327
rhand -20.1922 14.1614
rfingers 7.12502
rthumb 6.15428 -15.7292
lclavicle 1.36167e-014 -5.56597e-015
lhumerus -31.1952 -0.602198 84.8545
lradius 44.8432
lwrist 6.5823
lhand -16.6544 23.9697
lfingers 7.12502
lthumb 9.56878 53.7324
rfemur -59.0136 -12.8877 28.6711
rtibia 72.277
rfoot -14.4832 -9.32978
rtoes 18.8722
lfemur 4.94116 0.545181 -20.5427
ltibia 20.9076
lfoot -8.4012 -14.0233
ltoes 0.986206
896
root 19.2177 21.0931 2.45366 1.37834 3.81226 -0.0652546
lowerback 9.45119 -1.65083 -2.79362
upperback 3.26809 -2.37049 2.79953
thorax -1.66217 -1.20638 4.73306
lowerneck -11.1884 -3.59274 -10.1041
upperneck 38.0302 -5.73722 7.96409
head 15.9088 -2.84073 4.32355
rclavicle 2.18663e-014 -2.06736e-014
rhumerus -33.6228 -13.5824 -77.3821
rradius 29.6336
rwrist -11.4867
rhand -19.902 14.2388
rfingers 7.12502
rthumb 6.43447 -15.6434
lclavicle 2.18663e-014 -2.06736e-014
lhumerus -31.364 -0.616893 85.1266
lradius 44.5839
lwrist 7.07688
lhand -17.2166 23.1156
lfingers 7.12502
lthumb 9.02639 52.9025
rfemur -58.6483 -12.5406 28.9044
rtibia 72.0814
rfoot -14.8749 -9.58428
rtoes 19.9666
lfemur 5.05784 0.495535 -20.1187
ltibia 20.8092
lfoot -7.25718 -14.1039
ltoes 0.397188
897
root 19.2157 21.1459 2.55942 1.63914 3.7649 -0.0476729
lowerback 9.42875 -1.67334 -2.58472
upperback 3.17806 -2.37946 2.83349
thorax -1.75014 -1.20663 4.65232
lowerneck -11.2157 -3.53662 -10.1586
upperneck 37.997 -5.63329 7.9704
head 15.8862 -2.80247 4.35211
rclavicle 1.67973e-014 -2.3059e-014
rhumerus -33.5592 -13.3982 -77.4336
rradius 29.58
rwrist -11.4786
rhand -19.9634 14.1037
rfingers 7.12502
rthumb 6.37512 -15.7803
lclavicle 1.67973e-014 -2.3059e-014
lhumerus -31.6632 -0.371721 85.3133
lradius 44.2398
lwrist 6.75351
lhand -17.3173 22.1804
lfingers 7.12502
lthumb 8.92918 51.9714
rfemur -58.3258 -12.5057 28.8681
rtibia 71.8493
rfoot -15.1794 -9.60952
rtoes 20.9371
lfemur 5.2771 0.721969 -20.0035
ltibia 20.3373
lfoot -5.89436 -14.4953
ltoes -1.06209
898
root 19.2104 21.1988 2.66753 1.82265 3.66622 0.167743
lowerback 9.49686 -1.70235 -2.59723
upperback 3.075 -2.42026 2.79036
thorax -1.89211 -1.22192 4.62405
lowerneck -11.1068 -3.47786 -10.2668
upperneck 37.9663 -5.53344 7.99503
head 15.8351 -2.7749 4.39816
rclavicle 1.3418e-014 -2.22639e-014
rhumerus -33.5914 -13.0986 -77.5598
rradius 29.4901
rwrist -11.2521
rhand -20.1607 13.9962
rfingers 7.12502
rthumb 6.18472 -15.8935
lclavicle 1.3418e-014 -2.22639e-014
lhumerus -31.9408 -0.0669975 85.4213
lradius 43.627
lwrist 6.57396
lhand -17.4997 21.8035
lfingers 7.12502
lthumb 8.75315 51.602
rfemur -57.9223 -12.5671 28.6501
rtibia 71.6505
rfoot -15.4871 -9.35751
rtoes 21.8436
lfemur 5.61817 0.903525 -20.1449
ltibia 19.7614
lfoot -4.53367 -14.6248
ltoes -2.27463
899
root 19.2031 21.2869 2.77607 1.93491 3.52729 0.152634
lowerback 9.53037 -1.675 -2.39792
upperback 3.08302 -2.36506 2.81871
thorax -1.91506 -1.19357 4.53621
lowerneck -11.1894 -3.50585 -10.1728
upperneck 38.0083 -5.5112 7.77406
head 15.8622 -2.77836 4.28772
rclavicle 1.02374e-014 1.74931e-014
rhumerus -33.5443 -13.254 -77.5241
rradius 29.4167
rwrist -10.9875
rhand -20.0447 13.7742
rfingers 7.12502
rthumb 6.29666 -16.1122
lclavicle 1.02374e-014 1.74931e-014
lhumerus -32.113 0.0499757 85.6221
lradius 43.0709
lwrist 6.60414
lhand -17.9122 21.4715
lfingers 7.12502
lthumb 8.35506 51.2863
rfemur -57.228 -12.5818 28.6786
rtibia 71.2981
rfoot -15.8981 -9.17572
rtoes 21.6023
lfemur 5.88152 0.72633 -20.1175
ltibia 19.3758
lfoot -2.82732 -14.2973
ltoes -1.07431
900
root 19.2002 21.3441 2.88107 2.10349 3.37877 0.0513287
lowerback 9.48309 -1.6169 -2.07958
upperback 3.12386 -2.25674 2.88018
thorax -1.86753 -1.14051 4.40576
lowerneck -11.3881 -3.52454 -9.98923
upperneck 38.0458 -5.47077 7.51362
head 15.9075 -2.76321 4.14598
rclavicle -6.75868e-015 -4.77083e-015
rhumerus -33.4238 -13.3472 -77.5053
rradius 29.3979
rwrist -11.0153
rhand -20.0618 13.7267
rfingers 7.12502
rthumb 6.28018 -16.1602
lclavicle -6.75868e-015 -4.77083e-015
lhumerus -32.2481 0.102141 85.8742
lradius 42.6417
lwrist 6.51689
lhand -18.2532 21.3848
lfingers 7.12502
lthumb 8.02599 51.2124
rfemur -56.7499 -12.5541 28.8241
rtibia 70.9851
rfoot -16.1881 -9.20072
rtoes 19.8029
lfemur 5.97722 0.546772 -20.0073
ltibia 19.2329
lfoot -0.973836 -13.8375
ltoes 0.591672
901
root 19.2035 21.369 2.98703 2.26126 3.26719 -0.0232816
lowerback 9.44844 -1.60218 -1.71156
upperback 3.13611 -2.20233 2.91387
thorax -1.85412 -1.1128 4.22497
lowerneck -11.4827 -3.5 -9.97036
upperneck 38.0891 -5.4177 7.48059
head 15.9438 -2.74042 4.13882
rclavicle -4.35338e-014 3.81667e-014
rhumerus -33.2339 -13.4021 -77.4786
rradius 29.2309
rwrist -11.0349
rhand -19.8967 13.804
rfingers 7.12502
rthumb 6.43955 -16.0781
lclavicle -4.35338e-014 3.81667e-014
lhumerus -32.3016 0.213207 86.0141
lradius 41.9387
lwrist 6.22595
lhand -16.7802 22.7264
lfingers 7.12502
lthumb 9.44742 52.4946
rfemur -56.3997 -12.5356 28.8639
rtibia 70.6805
rfoot -16.3867 -9.10524
rtoes 18.9449
lfemur 6.01649 0.160532 -19.9822
ltibia 19.3278
lfoot 0.524572 -13.2774
ltoes 0.579044
902
root 19.2022 21.4283 3.09651 2.44437 3.21063 -0.553397
lowerback 9.35032 -1.65666 -0.95397
upperback 3.09573 -2.19978 3.1149
thorax -1.86394 -1.10957 4.00278
lowerneck -11.4323 -3.43543 -10.0971
upperneck 38.1197 -5.30573 7.52113
head 15.939 -2.70763 4.20082
rclavicle 1.07344e-014 -6.36111e-015
rhumerus -33.083 -13.4157 -77.381
rradius 29.0698
rwrist -10.9819
rhand -19.5453 13.8811
rfingers 7.12502
rthumb 6.77879 -15.9904
lclavicle 1.07344e-014 -6.36111e-015
lhumerus -32.4766 0.430072 86.1658
lradius 41.1506
lwrist 5.92256
lhand -15.0754 23.6428
lfingers 7.12502
lthumb 11.092 53.3297
rfemur -55.8609 -12.4529 29.4142
rtibia 70.2066
rfoot -16.5671 -9.10166
rtoes 19.1338
lfemur 5.75698 -0.4393 -19.4603
ltibia 19.7631
lfoot 1.78631 -12.6729
ltoes -0.0180096
903
root 19.1956 21.4874 3.20528 2.6781 3.08565 -1.04345
lowerback 9.21005 -1.67631 -0.323076
upperback 3.016 -2.16342 3.32607
thorax -1.88779 -1.08959 3.85905
lowerneck -11.2196 -3.35071 -10.1624
upperneck 37.9647 -5.14452 7.45313
head 15.7854 -2.65821 4.20208
rclavicle 3.18055e-015 -1.43125e-014
rhumerus -33.1034 -13.1957 -77.3475
rradius 29.1666
rwrist -10.9874
rhand -19.646 13.8132
rfingers 7.12502
rthumb 6.68159 -16.0614
lclavicle 3.18055e-015 -1.43125e-014
lhumerus -32.7954 0.467885 86.5171
lradius 40.4489
lwrist 6.58112
lhand -16.884 22.0641
lfingers 7.12502
lthumb 9.34723 51.8368
rfemur -55.3471 -12.2315 29.9468
rtibia 69.7157
rfoot -16.7617 -9.20357
rtoes 18.9069
lfemur 5.38792 -0.689445 -18.9011
ltibia 20.2346
lfoot 3.44649 -12.1779
ltoes 0.492037
904
root 19.1932 21.5432 3.31078 2.93351 2.87707 -0.968765
lowerback 9.06779 -1.61553 -0.157146
upperback 2.92138 -2.06829 3.31912
thorax -1.92036 -1.04054 3.74488
lowerneck -11.0075 -3.35003 -10.1167
upperneck 37.8654 -5.10769 7.28567
head 15.671 -2.65839 4.12118
rclavicle -1.09332e-014 1.82882e-014
rhumerus -33.2014 -13.0689 -77.3461
rradius 29.3166
rwrist -10.946
rhand -19.9537 13.5877
rfingers 7.12502
rthumb 6.38448 -16.2961
lclavicle -1.09332e-014 1.82882e-014
lhumerus -32.9341 1.25467 86.2682
lradius 39.8828
lwrist 3.94653
lhand -13.9652 23.8434
lfingers 7.12502
lthumb 12.1626 53.4698
rfemur -54.8644 -12.0258 29.8057
rtibia 69.2143
rfoot -17.0214 -9.08689
rtoes 18.9189
lfemur 5.16576 -0.800176 -18.9812
ltibia 20.463
lfoot 5.56836 -11.6672
ltoes 1.63669
